<?xml version="1.0" encoding="utf-8"?>
<!-- Generator: Adobe Illustrator 26.5.0, SVG Export Plug-In . SVG Version: 6.00 Build 0)  -->
<svg version="1.1" id="Layer_1" xmlns="http://www.w3.org/2000/svg" xmlns:xlink="http://www.w3.org/1999/xlink" x="0px" y="0px"
	 viewBox="0 0 613.71 207" style="enable-background:new 0 0 613.71 207;" xml:space="preserve">
<style type="text/css">
	.st0{fill:#F57E31;}
	.st1{fill:#00AED5;}
	.st2{fill:#DDDDDD;}
	.st3{fill:#E5E5E5;}
</style>
<path class="st0" d="M220.92,45.59l13.36,35.98c0.46,1.12,1.26,1.85,2.45,1.85c1.32,0,2.31-0.99,2.31-2.51V54.52
	c0-5.82,3.31-9.72,9.86-9.72c5.95,0,8.86,3.17,10.58,8.27l10.85,28.51c0.4,1.12,1.32,1.85,2.45,1.85c1.32,0,2.25-0.99,2.25-2.51
	V45.59h7.87v35.65c0,5.89-3.31,9.79-9.92,9.79c-5.95,0-8.8-3.18-10.52-8.27l-10.85-28.51c-0.4-1.12-1.32-1.92-2.51-1.92
	c-1.32,0-2.25,0.99-2.25,2.58v26.33c0,5.89-3.31,9.79-9.92,9.79c-5.95,0-8.8-3.18-10.52-8.27l-13.82-37.17H220.92z"/>
<path class="st0" d="M316.04,55.31c8.27,0,11.77,3.97,11.77,10.72c0,6.42-3.24,10.05-11.84,10.05h-16.6v2.51
	c0,2.78,1.52,4.83,5.36,4.83h21.37v6.81h-21.37c-8.73,0-12.17-4.9-12.17-11.51V66.82c0-6.61,3.44-11.51,12.17-11.51H316.04z
	 M299.37,70.59h16.4c3.77,0,5.16-1.59,5.16-4.17c0-2.65-1.52-4.37-4.96-4.37h-11.24c-3.84,0-5.36,2.12-5.36,4.83V70.59z"/>
<path class="st0" d="M343.43,40.16v15.15h15.48c9.26,0,15.08,5.69,15.08,17.46c0,11.77-5.82,17.46-15.08,17.46h-9.66
	c-8.4,0-12.83-4.9-12.83-14.95V40.16H343.43z M343.43,62.06v12.9c0,5.95,2.18,8.47,7.87,8.47h6.88c6.09,0,8.73-3.11,8.73-10.65
	c0-7.54-2.65-10.72-8.73-10.72H343.43z"/>
<path class="st1" d="M273.18,134.69v20.9c0,4.1,3.04,7.21,8.6,7.21h5.69c5.56,0,8.53-3.11,8.53-7.21v-20.9h6.88v21.17
	c0,8.07-5.16,13.76-15.15,13.76h-6.48c-9.99,0-15.15-5.69-15.15-13.76v-21.17H273.18z"/>
<path class="st1" d="M313.99,134.69v-8.27h7.08v8.27h9.66v6.75h-9.66v16.54c0,3.9,1.39,5.23,4.7,5.23h4.83v6.42h-6.28
	c-7.21,0-10.32-2.91-10.32-12.04v-16.14h-4.76v-6.75H313.99z"/>
<path class="st1" d="M358.38,134.69c9.26,0,15.15,5.69,15.15,17.46c0,11.77-5.89,17.46-15.15,17.46h-7.34
	c-9.33,0-15.15-5.69-15.15-17.46c0-11.77,5.82-17.46,15.15-17.46H358.38z M351.7,141.43c-6.09,0-8.73,3.18-8.73,10.72
	c0,7.54,2.65,10.65,8.73,10.65h6.02c6.02,0,8.73-3.11,8.73-10.65c0-7.54-2.71-10.72-8.73-10.72H351.7z"/>
<path class="st1" d="M422.74,134.69c11.84,0,17.66,5.62,17.66,15.28v19.65h-7.08v-19.65c0-5.49-3.18-8.53-10.52-8.53h-8.2v28.18
	h-7.08v-28.18H389.8c-0.6,0-0.86,0.33-0.86,0.99v27.19h-7.01v-29.5c0-4.1,1.39-5.42,4.89-5.42H422.74z"/>
<path class="st1" d="M472.55,134.69c8.73,0,12.17,4.9,12.17,11.51v16.4c0,5.03-1.32,7.01-7.21,7.01h-16.34
	c-8.27,0-11.71-4.04-11.71-10.65c0-6.35,3.18-10.05,11.77-10.05h16.6v-2.65c0-2.71-1.52-4.83-5.36-4.83h-20.9v-6.75H472.55z
	 M477.84,161.01v-6.55h-16.47c-3.7,0-5.03,1.52-5.03,4.1c0,2.58,1.39,4.23,4.9,4.23h14.68C477.31,162.8,477.84,162.27,477.84,161.01
	z"/>
<path class="st1" d="M495.9,134.69v-8.27h7.08v8.27h9.66v6.75h-9.66v16.54c0,3.9,1.39,5.23,4.7,5.23h4.83v6.42h-6.28
	c-7.21,0-10.32-2.91-10.32-12.04v-16.14h-4.76v-6.75H495.9z"/>
<path class="st1" d="M540.28,134.69c9.26,0,15.15,5.69,15.15,17.46c0,11.77-5.89,17.46-15.15,17.46h-7.34
	c-9.33,0-15.15-5.69-15.15-17.46c0-11.77,5.82-17.46,15.15-17.46H540.28z M533.6,141.43c-6.09,0-8.73,3.18-8.73,10.72
	c0,7.54,2.65,10.65,8.73,10.65h6.02c6.02,0,8.73-3.11,8.73-10.65c0-7.54-2.71-10.72-8.73-10.72H533.6z"/>
<path class="st1" d="M587.58,134.69v6.75h-12.3c-3.11,0-4.5,1.46-4.5,4.5v23.68h-7.01v-24.74c0-7.01,2.58-10.19,9.46-10.19H587.58z"
	/>
<g>
	<path class="st2" d="M19.77,110.23c2.45-1.7,2.47-1.72,4.51,0.55c2.13,2.38,4.23,4.79,6.34,7.18c0.22,0.25,0.42,0.67,0.77,0.59
		c0.52-0.12,0.39-0.65,0.36-1.01c-0.23-2.73-0.37-5.46-0.34-8.2c0.23-20.93,7.49-38.97,22.12-53.98
		c12.26-12.58,27.17-20.13,44.54-22.41c21.71-2.85,41.27,2.68,58.47,16.25c11.2,8.84,19.14,20.08,24.11,33.43
		c0.14,0.37,0.32,0.74,0.38,1.13c0.15,0.92-0.02,1.77-1.03,2.08c-0.97,0.3-1.84,0.07-2.27-0.96c-0.66-1.58-1.21-3.2-1.93-4.76
		c-10.92-23.7-29.12-38.32-54.79-43.16c-15.35-2.9-30.29-0.86-44.32,6.05C57.16,52.65,44.16,67.99,37.85,88.9
		c-2.11,6.99-2.92,14.17-2.94,21.43c-0.01,3,0.19,6.03,0.72,9.04c0.74,0,0.74-0.64,0.93-1.04c1.58-3.23,3.14-6.47,4.7-9.7
		c0.17-0.36,0.35-0.72,0.52-1.08c0.52-1.12,1.34-1.83,2.58-1.25c1.25,0.59,1.2,1.64,0.65,2.76c-1.23,2.51-2.42,5.04-3.64,7.56
		c-1.46,3.03-2.89,6.08-4.39,9.09c-1.04,2.08-2.25,2.26-3.8,0.53c-3.95-4.42-7.83-8.9-11.76-13.34c-0.51-0.58-0.81-1.4-1.66-1.64
		C19.77,110.92,19.77,110.58,19.77,110.23z"/>
</g>
<g>
	<path class="st2" d="M195.11,127.36c-2.6,1.64-3.1,1.48-4.61-1.38c-1.64-3.11-3.31-6.21-5.09-9.56c-0.91,1.42-0.64,2.77-0.83,3.98
		c-2.29,14.82-8.25,27.92-18.11,39.22c-12.67,14.53-28.61,23.34-47.67,25.82c-23.25,3.03-43.9-3.25-61.65-18.75
		c-5.2-4.54-9.53-9.8-13.32-15.54c-0.22-0.33-0.44-0.67-0.65-1.01c-0.59-0.99-0.79-2.02,0.34-2.69c1.02-0.6,1.96-0.26,2.64,0.77
		c1.62,2.49,3.32,4.92,5.2,7.21c11.44,13.97,25.98,22.96,43.79,25.93c26.78,4.46,49.66-3.46,68.05-23.43
		c10.03-10.9,15.88-23.97,17.91-38.7c0.15-1.07,0.36-2.14,0.31-3.23c-0.01-0.22,0.04-0.46-0.43-0.68c-2.02,2.51-4.07,5.06-6.12,7.61
		c-0.72,0.89-1.41,1.8-2.16,2.65c-0.79,0.9-1.79,1.11-2.72,0.32c-0.91-0.78-0.67-1.77,0-2.61c3.96-4.94,7.91-9.88,11.93-14.77
		c1.34-1.63,2.52-1.46,3.57,0.46c2.59,4.76,5.08,9.58,7.68,14.33c0.52,0.95,0.71,2.2,1.95,2.65
		C195.11,126.44,195.11,126.9,195.11,127.36z"/>
</g>
<g>
	<g>
		<path class="st1" d="M143.02,154.09c-1.05,0.09-1.94-0.42-2.8-1c-1.52-1.01-3.05-2.01-4.53-3.07c-0.74-0.53-1.32-0.58-2.13-0.07
			c-3.98,2.5-8.3,4.26-12.86,5.35c-1.02,0.24-1.42,0.71-1.58,1.65c-0.31,1.79-0.69,3.57-1.05,5.36c-0.53,2.65-2.02,3.93-4.75,3.97
			c-2.85,0.04-5.71,0.05-8.56,0c-2.57-0.05-3.99-1.23-4.57-3.74c-0.46-2-0.89-4-1.26-6.01c-0.12-0.66-0.38-0.96-1.04-1.12
			c-4.8-1.14-9.32-2.97-13.49-5.61c-0.66-0.42-1.11-0.29-1.68,0.1c-1.65,1.13-3.3,2.24-4.99,3.31c-2.18,1.38-4.05,1.22-5.89-0.57
			c-2.09-2.03-4.15-4.08-6.17-6.17c-1.77-1.82-1.95-3.76-0.6-5.89c0.98-1.54,1.96-3.08,3.05-4.54c0.67-0.9,0.74-1.58,0.12-2.58
			c-2.43-3.89-4.14-8.11-5.21-12.56c-0.27-1.11-0.79-1.51-1.76-1.7c-1.84-0.35-3.69-0.7-5.52-1.09c-2.37-0.51-3.69-2.02-3.74-4.41
			c-0.06-3.02-0.06-6.05,0-9.07c0.05-2.31,1.38-3.85,3.63-4.34c1.83-0.4,3.68-0.74,5.53-1.07c1.04-0.19,1.59-0.59,1.88-1.78
			c1.07-4.45,2.8-8.66,5.21-12.56c0.56-0.91,0.57-1.57-0.07-2.43c-1.12-1.51-2.14-3.09-3.15-4.68c-1.3-2.04-1.13-4.03,0.54-5.77
			c2.06-2.14,4.16-4.23,6.29-6.3c1.78-1.73,3.66-1.91,5.74-0.59c1.68,1.07,3.35,2.17,4.97,3.33c0.7,0.5,1.22,0.54,1.97,0.07
			c3.99-2.5,8.29-4.28,12.86-5.37c1.07-0.26,1.47-0.75,1.64-1.77c0.32-1.91,0.74-3.8,1.17-5.68c0.52-2.24,1.91-3.5,4.18-3.57
			c3.08-0.09,6.16-0.08,9.24-0.01c2.43,0.06,3.9,1.39,4.4,3.77c0.37,1.72,0.77,3.45,1.02,5.19c0.17,1.21,0.62,1.85,1.91,2.15
			c4.41,1.01,8.56,2.74,12.4,5.14c1,0.63,1.68,0.52,2.56-0.13c1.47-1.08,3.01-2.07,4.54-3.05c2.19-1.4,4.04-1.23,5.88,0.55
			c2.09,2.03,4.15,4.08,6.18,6.16c1.79,1.83,1.98,3.69,0.6,5.88c-1.07,1.69-2.18,3.34-3.33,4.97c-0.45,0.64-0.49,1.11-0.06,1.81
			c2.54,4.09,4.37,8.49,5.5,13.17c0.21,0.86,0.61,1.22,1.43,1.37c1.9,0.35,3.8,0.75,5.69,1.15c2.55,0.55,3.71,1.92,3.75,4.53
			c0.04,2.97,0.05,5.94,0,8.9c-0.04,2.5-1.23,3.89-3.66,4.43c-1.94,0.43-3.89,0.86-5.85,1.22c-0.78,0.14-1.12,0.46-1.32,1.26
			c-1.17,4.72-2.98,9.2-5.58,13.32c-0.41,0.65-0.33,1.09,0.08,1.67c1.17,1.68,2.32,3.39,3.41,5.12c1.32,2.1,1.13,3.96-0.6,5.74
			c-2.07,2.12-4.19,4.2-6.3,6.29C145.38,153.62,144.34,154.16,143.02,154.09z M94.81,126.33c0.11,0.09,0.22,0.18,0.33,0.27
			c5.67,4.68,12.19,5.97,19.18,4.31c9.36-2.22,15.95-9.66,17-19.27c0.69-6.27-0.91-12.05-5.3-16.84c-5.23-6.34-12.14-8.77-20.04-7.7
			c-11.84,1.6-19.02,11.51-19.22,21.24c-0.15,7.25,2.36,13.3,8.01,17.96L94.81,126.33z"/>
	</g>
</g>
<g>
	<path class="st3" d="M94.81,126.33c0.11,0.09,0.22,0.18,0.32,0.27C95.03,126.51,94.92,126.42,94.81,126.33z"/>
</g>
<path class="st1" d="M253.33,169.61H262l-15.08-39.69c-1.59-4.17-4.63-5.75-9.26-5.75c-4.7,0-7.74,1.59-9.39,5.75l-15.68,39.69h8.6
	l5.14-13.04h22.09L253.33,169.61z M229.34,148.92l6-15.23c0.46-1.06,1.19-1.52,2.25-1.52c1.06,0,1.79,0.46,2.18,1.52l5.75,15.23
	H229.34z"/>
</svg>
